<?xml version="1.0" encoding="utf-8"?>
<!-- Generator: Adobe Illustrator 17.1.0, SVG Export Plug-In . SVG Version: 6.00 Build 0)  -->
<!DOCTYPE svg PUBLIC "-//W3C//DTD SVG 1.1//EN" "http://www.w3.org/Graphics/SVG/1.1/DTD/svg11.dtd">
<svg version="1.1" id="screen-infinity" xmlns="http://www.w3.org/2000/svg" xmlns:xlink="http://www.w3.org/1999/xlink" x="0px"
	 y="0px" viewBox="0 0 1010 956.8418" enable-background="new 0 0 1010 956.8418" xml:space="preserve">
<g id="screen-infinity-screen-infinity">
	<g id="screen-infinity-screen">
		<g>
			<rect x="409.313" y="770.7891" fill="#BDC3C7" width="191.3608" height="159.4736"/>
		</g>
		<g>
			<polygon fill="#656872" points="627.2529,956.8418 574.0947,956.8418 574.0947,744.21 627.2529,744.21 627.2529,956.8418 			"/>
		</g>
		<g>
			<polygon fill="#656872" points="435.8921,956.8418 382.7344,956.8418 382.7344,744.21 435.8921,744.21 435.8921,956.8418 			"/>
		</g>
		<g>
			<polygon fill="#656872" points="754.8525,956.8418 255.1733,956.8418 255.1733,903.6836 754.8525,903.6836 754.8525,956.8418 			
				"/>
		</g>
		<g>
			<path fill="#FFCA70" d="M919.6211,770.7891H90.3657c-35.0664,0-63.7866-28.6807-63.7866-63.7998V90.3525
				c0-35.0922,28.7202-63.7739,63.7866-63.7739h829.2554c35.0928,0,63.7998,28.6817,63.7998,63.7739v616.6368
				C983.4209,742.1084,954.7139,770.7891,919.6211,770.7891z"/>
		</g>
		<g>
			<rect x="26.5791" y="664.4736" fill="#ECF0F1" width="938.7373" height="86.8223"/>
		</g>
		<g>
			<path fill="#656872" d="M919.6211,797.3682H90.3657C40.5435,797.3682,0,756.8252,0,706.9893V90.3525
				C0,40.543,40.5435,0,90.3657,0h829.2554C969.457,0,1010,40.543,1010,90.3525v616.6368
				C1010,756.8252,969.457,797.3682,919.6211,797.3682L919.6211,797.3682z M90.3657,53.1577c-20.518,0-37.208,16.69-37.208,37.1948
				v616.6368c0,20.5312,16.69,37.2207,37.208,37.2207h829.2554c20.5185,0,37.2207-16.6895,37.2207-37.2207V90.3525
				c0-20.5048-16.7022-37.1948-37.2207-37.1948H90.3657L90.3657,53.1577z"/>
		</g>
		<g>
			<polygon fill="#656872" points="1010,691.0527 0,691.0527 0,637.8945 1010,637.8945 1010,691.0527 			"/>
		</g>
	</g>
	<g id="screen-infinity-infinity">
		<g>
			<path fill="#ED7161" d="M700.0596,535.8877c-82.3584,0-140.7339-59.2314-195.0596-123.1094
				c-54.793,64.3184-113.0254,123.1094-195.0596,123.1094c-90.3008,0-163.7563-73.4814-163.7563-163.7822
				c0-90.3018,73.4555-163.7832,163.7563-163.7832c82.4234,0,142.6675,60.5556,195.0596,121.8896
				c52.3921-61.334,112.6362-121.8896,195.0596-121.8896c90.3008,0,163.7558,73.4814,163.7558,163.7832
				C863.8154,462.4063,790.3604,535.8877,700.0596,535.8877L700.0596,535.8877z M539.6904,371.4824
				c50.3028,59.6465,98.7495,111.2471,160.3691,111.2471c60.9835,0,110.5981-49.6279,110.5981-110.624
				c0-60.9971-49.6147-110.625-110.5981-110.625C637.5835,261.4805,589.1621,312.8477,539.6904,371.4824L539.6904,371.4824z
				 M309.9404,261.4805c-60.9834,0-110.5981,49.6279-110.5981,110.625c0,60.9961,49.6147,110.624,110.5981,110.624
				c61.9053,0,110.5078-52.0938,160.3824-111.2471C420.8379,312.8477,372.4165,261.4805,309.9404,261.4805L309.9404,261.4805z"/>
		</g>
	</g>
</g>
</svg>
